# xmcd CD database file
#
# Track frame offsets:
#	150
#	13430
#	25055
#	40620
#	54237
#	77107
#	96480
#	115337
#	146460
#	158845
#	194132
#	229235
#
# Disc length: 3217 seconds
#
# Revision: 0
# Processed by: cddbd v1.4PL0 Copyright (c) Steve Scherf et al.
# Submitted via: CDex 1.51
#
DISCID=a00c8f0c
DTITLE=Various Artist - Wishing on a Star (A Jazz CD for Children of All Ages)
DYEAR=1998
DGENRE=Jazz
TTITLE0=God Bless the Child
TTITLE1=When You Wish Upon A Star
TTITLE2=A Child Is Born
TTITLE3=Baby
TTITLE4=Save The Children
TTITLE5=Little Girl
TTITLE6=Godchild
TTITLE7=Infant Eyes
TTITLE8=Dat Dere
TTITLE9=Milton Nascimento Medley
TTITLE10=Speak Like A Child
TTITLE11=Nature Boy
EXTD=YEAR: 1998
EXTT0=
EXTT1=
EXTT2=
EXTT3=
EXTT4=
EXTT5=
EXTT6=
EXTT7=
EXTT8=
EXTT9=
EXTT10=
EXTT11=
PLAYORDER=
